HIERARCHY
ROOT Hips
{
 OFFSET 0.000000 0.000000 0.000000
 CHANNELS 6 Xposition Yposition Zposition Yrotation Xrotation Zrotation
 JOINT Chest
 {
  OFFSET 0.000000 9.588913 -0.003946
  CHANNELS 3 Yrotation Xrotation Zrotation
  JOINT Chest2
  {
   OFFSET 0.000000 9.541882 0.008053
   CHANNELS 3 Yrotation Xrotation Zrotation
   JOINT Chest3
   {
    OFFSET 0.000000 9.501360 0.000000
    CHANNELS 3 Yrotation Xrotation Zrotation
    JOINT Chest4
    {
     OFFSET 0.000000 9.491660 0.000000
     CHANNELS 3 Yrotation Xrotation Zrotation
     JOINT Neck
     {
      OFFSET 0.000000 14.331917 0.000000
      CHANNELS 3 Yrotation Xrotation Zrotation
      JOINT Head
      {
       OFFSET 0.000000 8.884799 0.017034
       CHANNELS 3 Yrotation Xrotation Zrotation
       End Site
       {
        OFFSET 0.000000 16.896195 0.008993
       }
      }
     }
     JOINT RightCollar
     {
      OFFSET -2.923010 9.499495 0.000000
      CHANNELS 3 Yrotation Xrotation Zrotation
      JOINT RightShoulder
      {
       OFFSET -13.795216 0.000000 0.000000
       CHANNELS 3 Yrotation Xrotation Zrotation
       JOINT RightElbow
       {
        OFFSET -30.272209 0.000000 0.000000
        CHANNELS 3 Yrotation Xrotation Zrotation
        JOINT RightWrist
        {
         OFFSET -24.478199 0.000000 0.000000
         CHANNELS 3 Yrotation Xrotation Zrotation
         End Site
         {
          OFFSET -18.090752 0.000000 0.000000
         }
        }
       }
      }
     }
     JOINT LeftCollar
     {
      OFFSET 2.923010 9.499495 0.000000
      CHANNELS 3 Yrotation Xrotation Zrotation
      JOINT LeftShoulder
      {
       OFFSET 13.795216 0.000000 0.000000
       CHANNELS 3 Yrotation Xrotation Zrotation
       JOINT LeftElbow
       {
        OFFSET 30.272209 0.000000 0.000000
        CHANNELS 3 Yrotation Xrotation Zrotation
        JOINT LeftWrist
        {
         OFFSET 24.478199 0.000000 0.000000
         CHANNELS 3 Yrotation Xrotation Zrotation
         End Site
         {
          OFFSET 18.090752 0.000000 0.000000
         }
        }
       }
      }
     }
    }
   }
  }
 }
 JOINT RightHip
 {
  OFFSET -7.826875 0.019532 0.001973
  CHANNELS 3 Yrotation Xrotation Zrotation
  JOINT RightKnee
  {
   OFFSET 0.000000 -40.546152 -0.001885
   CHANNELS 3 Yrotation Xrotation Zrotation
   JOINT RightAnkle
   {
    OFFSET 0.000000 -39.417092 -0.003189
    CHANNELS 3 Yrotation Xrotation Zrotation
    JOINT RightToe
    {
     OFFSET 0.000000 -7.579396 17.243563
     CHANNELS 3 Yrotation Xrotation Zrotation
     End Site
     {
      OFFSET 0.000000 -1.500329 6.694466
     }
    }
   }
  }
 }
 JOINT LeftHip
 {
  OFFSET 7.826875 0.019532 0.001973
  CHANNELS 3 Yrotation Xrotation Zrotation
  JOINT LeftKnee
  {
   OFFSET 0.000000 -40.546152 -0.001885
   CHANNELS 3 Yrotation Xrotation Zrotation
   JOINT LeftAnkle
   {
    OFFSET 0.000000 -39.417092 -0.003189
    CHANNELS 3 Yrotation Xrotation Zrotation
    JOINT LeftToe
    {
     OFFSET 0.000000 -7.579396 17.243563
     CHANNELS 3 Yrotation Xrotation Zrotation
     End Site
     {
      OFFSET 0.000000 -1.500329 6.694466
     }
    }
   }
  }
 }
}
MOTION
Frames: 16
Frame Time: 0.008333
0.000000 87.345680 0.000000 0.000000 -5.767889 0.000000 0.000000 11.653876 0.000000 0.000000 -5.885988 0.000000 0.000000 -0.000000 0.000000 0.000000 -0.000000 0.000000 0.000000 12.528808 0.000000 0.000000 0.711711 0.000000 0.000000 -0.000000 0.000000 0.000000 -0.000000 0.000000 2.309063 -0.000000 0.000000 -2.309063 -0.000000 -0.000000 0.000000 -0.000000 0.000000 0.000000 0.000000 0.000000 -2.309063 0.000000 0.000000 2.309063 -0.000000 0.000000 0.000000 8.520374 0.000000 0.000000 1.905768 0.000000 -0.000000 -4.658254 0.000000 0.000000 -0.000000 0.000000 0.000000 8.520374 0.000000 0.000000 1.905768 0.000000 -0.000000 -4.658254 0.000000 0.000000 -0.000000 0.000000
14.073468 89.182487 -1.222633 47.593007 -7.865188 -1.012008 1.088267 3.238914 1.232075 0.606360 1.853393 0.721667 0.761696 2.315528 0.905266 0.606360 1.853393 0.721667 1.942778 24.791744 -1.074098 2.355634 1.159621 -1.610333 0.391992 1.182944 -0.379373 1.696487 -5.067232 86.445016 6.447973 9.086165 3.284419 1.866617 -4.557964 -1.658248 -3.671507 0.672103 -0.390623 3.487533 -4.056680 -88.938790 -0.302754 0.213850 -0.670446 0.330495 -0.887984 0.483219 -1.144302 9.976033 -1.189585 2.624799 1.954311 0.390191 0.756025 -3.841134 2.163630 0.003005 -0.064532 0.000998 6.279814 10.010022 3.116303 -6.025013 3.408160 0.515262 -3.008821 -5.753100 -0.582944 0.004964 0.056734 0.005749
14.078201 89.182123 -1.224084 47.593458 -7.865214 -1.015290 1.088151 3.232025 1.231889 0.606325 1.849056 0.722357 0.761647 2.310106 0.906120 0.606325 1.849056 0.722357 1.943265 24.800671 -1.075380 2.356538 1.170648 -1.611880 0.392177 1.182271 -0.380091 1.693853 -5.050647 86.446951 6.444029 9.097199 3.287340 1.868105 -4.557619 -1.657821 -3.683941 0.675328 -0.383007 3.483747 -4.061544 -88.936779 -0.305769 0.221255 -0.674715 0.328195 -0.886084 0.484359 -1.144362 9.977973 -1.187599 2.625201 1.953699 0.385416 0.756829 -3.841433 2.169505 0.002601 -0.063753 0.001000 6.280989 10.008267 3.116110 -6.023892 3.415848 0.515285 -3.010043 -5.758596 -0.578499 0.004458 0.057973 0.004457
14.083717 89.181727 -1.225900 47.592136 -7.865762 -1.019632 1.089342 3.225011 1.232385 0.607021 1.844910 0.723321 0.762513 2.304921 0.907322 0.607021 1.844910 0.723321 1.943138 24.810142 -1.076066 2.356639 1.182310 -1.612639 0.391876 1.183494 -0.381153 1.688815 -5.036368 86.448294 6.440503 9.110368 3.289233 1.868421 -4.558604 -1.658368 -3.697475 0.678288 -0.372978 3.485530 -4.065924 -88.938919 -0.308734 0.235270 -0.676600 0.322873 -0.886773 0.484604 -1.142651 9.978955 -1.186457 2.623894 1.955848 0.383844 0.759781 -3.842606 2.173647 0.002472 -0.063544 0.001487 6.284638 10.008128 3.117126 -6.024516 3.422045 0.514735 -3.009933 -5.764427 -0.572988 0.003890 0.059779 0.003205
14.089968 89.181313 -1.228256 47.590438 -7.866884 -1.023887 1.091237 3.218590 1.233106 0.608122 1.841155 0.724216 0.763885 2.300223 0.908439 0.608122 1.841155 0.724216 1.942706 24.820007 -1.076531 2.356362 1.194445 -1.613091 0.390508 1.185317 -0.382919 1.682021 -5.024099 86.447059 6.437969 9.125207 3.293047 1.870074 -4.559440 -1.657427 -3.711488 0.681347 -0.361323 3.489292 -4.071575 -88.943147 -0.311690 0.251577 -0.678674 0.315509 -0.889719 0.485431 -1.139528 9.979327 -1.186061 2.621827 1.960483 0.382629 0.763006 -3.844778 2.178136 0.002681 -0.063622 0.002041 6.289803 10.010439 3.117433 -6.026983 3.425004 0.514658 -3.008081 -5.768973 -0.567129 0.003208 0.061648 0.002220
14.096924 89.180893 -1.231276 47.590372 -7.868816 -1.026921 1.092539 3.213566 1.233341 0.608830 1.838083 0.724891 0.764768 2.296380 0.909281 0.608830 1.838083 0.724891 1.943246 24.829607 -1.077394 2.357233 1.206296 -1.614198 0.388236 1.183569 -0.384843 1.676788 -5.011305 86.443901 6.435290 9.137629 3.297091 1.871812 -4.557619 -1.656904 -3.724200 0.682876 -0.351358 3.491840 -4.078317 -88.944572 -0.316504 0.264035 -0.682735 0.310889 -0.889448 0.485048 -1.138829 9.979764 -1.188046 2.622054 1.967175 0.381544 0.764512 -3.848967 2.184336 0.002962 -0.063185 0.001735 6.292677 10.013468 3.115405 -6.029894 3.428540 0.514180 -3.003774 -5.773015 -0.561222 0.002507 0.062981 0.002170
14.104235 89.180456 -1.234947 47.591768 -7.870739 -1.029166 1.092816 3.209341 1.232456 0.608838 1.835426 0.725107 0.764773 2.293059 0.909546 0.608838 1.835426 0.725107 1.945595 24.838498 -1.077760 2.359955 1.217324 -1.615177 0.386991 1.180946 -0.385344 1.672739 -4.998598 86.441648 6.434093 9.147106 3.299808 1.871611 -4.555182 -1.658846 -3.736539 0.683376 -0.340628 3.494663 -4.086184 -88.944112 -0.321274 0.273854 -0.687832 0.308964 -0.887398 0.482663 -1.140877 9.980319 -1.192202 2.624086 1.973825 0.381448 0.764728 -3.854540 2.191819 0.003168 -0.062039 0.000514 6.292751 10.014740 3.111634 -6.032170 3.435544 0.513456 -2.999760 -5.778048 -0.554711 0.002028 0.064014 0.002166
14.111703 89.180019 -1.238950 47.592859 -7.873487 -1.031636 1.092916 3.205648 1.230854 0.608709 1.833164 0.724991 0.764606 2.290232 0.909397 0.608709 1.833164 0.724991 1.949125 24.846742 -1.076768 2.363645 1.227560 -1.614947 0.388216 1.179645 -0.383479 1.668415 -4.987323 86.439470 6.432344 9.153218 3.300536 1.870396 -4.554118 -1.661202 -3.749220 0.685323 -0.326501 3.500256 -4.096167 -88.944827 -0.323246 0.283208 -0.693868 0.307198 -0.884124 0.482066 -1.140836 9.982530 -1.195973 2.625723 1.978806 0.381034 0.764206 -3.860299 2.199127 0.002952 -0.060735 0.000034 6.290581 10.015570 3.107571 -6.031456 3.445285 0.513661 -2.999436 -5.784896 -0.548714 0.002043 0.065339 0.002220
14.119609 89.179635 -1.242965 47.593197 -7.879776 -1.033734 1.092804 3.203104 1.229489 0.608619 1.831724 0.724718 0.764490 2.288432 0.909052 0.608619 1.831724 0.724718 1.953721 24.854649 -1.074650 2.368233 1.237390 -1.613737 0.392853 1.178528 -0.379800 1.663491 -4.977691 86.434363 6.426948 9.155602 3.299295 1.869225 -4.553670 -1.661761 -3.761633 0.688360 -0.313470 3.508329 -4.107598 -88.944623 -0.324431 0.292904 -0.699652 0.308117 -0.878626 0.483503 -1.138013 9.987639 -1.198982 2.627367 1.985576 0.378822 0.762329 -3.867584 2.206178 0.002699 -0.059861 0.000700 6.285003 10.019789 3.102792 -6.026629 3.456293 0.515179 -3.002047 -5.792940 -0.545784 0.002624 0.066532 0.004050
14.127795 89.179268 -1.247090 47.594379 -7.888419 -1.035217 1.091698 3.201790 1.228449 0.608061 1.831084 0.724270 0.763789 2.287634 0.908489 0.608061 1.831084 0.724270 1.959287 24.861516 -1.072524 2.373869 1.245973 -1.612736 0.401152 1.175792 -0.375779 1.657681 -4.969895 86.427127 6.420316 9.156815 3.298552 1.866053 -4.554013 -1.661522 -3.774349 0.689241 -0.304283 3.515334 -4.117558 -88.940676 -0.327845 0.301777 -0.703717 0.310970 -0.873899 0.483702 -1.137505 9.994221 -1.202519 2.629060 1.994375 0.375530 0.761281 -3.875662 2.213845 0.002618 -0.059756 0.001205 6.276833 10.026621 3.097222 -6.021636 3.467040 0.517042 -3.004622 -5.800861 -0.544493 0.003240 0.067368 0.006666
14.135663 89.178840 -1.251483 47.597616 -7.895924 -1.037448 1.089446 3.201046 1.227661 0.606789 1.830702 0.723907 0.762196 2.287160 0.908028 0.606789 1.830702 0.723907 1.965336 24.867126 -1.071127 2.380189 1.253042 -1.612633 0.412514 1.171278 -0.373022 1.649870 -4.966099 86.420629 6.412264 9.159733 3.299085 1.861149 -4.555319 -1.661882 -3.787769 0.687763 -0.296802 3.518252 -4.124690 -88.933296 -0.331715 0.307291 -0.707389 0.310331 -0.871301 0.483709 -1.142207 9.999706 -1.206874 2.630243 2.002603 0.374369 0.762697 -3.882687 2.219440 0.002508 -0.060247 0.002126 6.267767 10.031501 3.091927 -6.019372 3.478455 0.518742 -3.005300 -5.809148 -0.541761 0.003656 0.068365 0.007813
14.143038 89.178342 -1.256074 47.600804 -7.901676 -1.040760 1.087164 3.199926 1.227380 0.605505 1.829978 0.723860 0.760589 2.286258 0.907962 0.605505 1.829978 0.723860 1.971054 24.872993 -1.069913 2.386193 1.260423 -1.612655 0.424534 1.167274 -0.371648 1.640297 -4.966414 86.415523 6.399745 9.164711 3.298683 1.857518 -4.554538 -1.662036 -3.801078 0.688134 -0.289450 3.518231 -4.131496 -88.924992 -0.333581 0.312619 -0.711889 0.307103 -0.871051 0.486974 -1.149397 10.002922 -1.211375 2.632479 2.010911 0.376016 0.764392 -3.889248 2.221500 0.002634 -0.060818 0.004163 6.258874 10.034391 3.086429 -6.018746 3.489769 0.521714 -3.002139 -5.817393 -0.538365 0.004358 0.069514 0.007841
14.150189 89.177810 -1.260844 47.602815 -7.906891 -1.043681 1.085422 3.198220 1.226809 0.604489 1.828826 0.723741 0.759317 2.284820 0.907805 0.604489 1.828826 0.723741 1.976570 24.879547 -1.067844 2.391786 1.268623 -1.611703 0.435809 1.165276 -0.369245 1.630366 -4.967844 86.411165 6.384574 9.171197 3.295881 1.852204 -4.552662 -1.661055 -3.812972 0.691538 -0.280345 3.517241 -4.139653 -88.918330 -0.333741 0.318821 -0.716464 0.303876 -0.871861 0.492466 -1.157468 10.005446 -1.216925 2.636724 2.018696 0.378977 0.765432 -3.895591 2.221969 0.002961 -0.061109 0.006475 6.250479 10.037505 3.081090 -6.017867 3.499216 0.525029 -3.001634 -5.824544 -0.535162 0.004746 0.070522 0.007581
14.157138 89.177242 -1.265962 47.603274 -7.911044 -1.045061 1.084007 3.195880 1.225429 0.603591 1.827299 0.723302 0.758188 2.282913 0.907250 0.603591 1.827299 0.723302 1.981945 24.885983 -1.065253 2.397104 1.276662 -1.610150 0.445743 1.164409 -0.366089 1.622953 -4.967866 86.406977 6.371145 9.180511 3.291746 1.846116 -4.555477 -1.658673 -3.825001 0.696252 -0.269073 3.517537 -4.149129 -88.913370 -0.332708 0.321901 -0.721592 0.301219 -0.869558 0.498397 -1.165830 10.007055 -1.224633 2.642343 2.025132 0.382485 0.766535 -3.901462 2.223255 0.003064 -0.060946 0.007691 6.243390 10.040338 3.076580 -6.014961 3.506441 0.525280 -3.006759 -5.830309 -0.530311 0.004305 0.071379 0.007029
14.163844 89.176648 -1.271380 47.599128 -7.914339 -1.044550 1.084293 3.192974 1.224055 0.603623 1.825695 0.722784 0.758222 2.280910 0.906599 0.603623 1.825695 0.722784 1.985564 24.892354 -1.063028 2.400592 1.284574 -1.608591 0.451904 1.162342 -0.365365 1.619616 -4.964732 86.402661 6.361669 9.192227 3.288351 1.844860 -4.561107 -1.655408 -3.840535 0.700785 -0.258297 3.520727 -4.157972 -88.909268 -0.332959 0.324196 -0.728093 0.299356 -0.867202 0.505224 -1.171776 10.006619 -1.234157 2.650637 2.032143 0.385633 0.767198 -3.907283 2.226851 0.002475 -0.060511 0.007282 6.241999 10.044258 3.071406 -6.010984 3.509915 0.523104 -3.009627 -5.833871 -0.523194 0.003894 0.071886 0.006127
14.170165 89.176068 -1.276650 47.590613 -7.918134 -1.044387 1.086015 3.190123 1.223435 0.604465 1.824488 0.722479 0.759270 2.279399 0.906220 0.604465 1.824488 0.722479 1.988751 24.898553 -1.061632 2.403799 1.292280 -1.607832 0.457344 1.159263 -0.366234 1.616565 -4.960607 86.397506 6.356460 9.203012 3.286983 1.845618 -4.564297 -1.653980 -3.856867 0.704650 -0.249392 3.527252 -4.165097 -88.906001 -0.336033 0.332462 -0.732433 0.299701 -0.870638 0.509309 -1.173693 10.005003 -1.242907 2.659355 2.040955 0.389225 0.767774 -3.912564 2.231176 0.001417 -0.060652 0.006069 6.249504 10.051039 3.067312 -6.008835 3.508535 0.522207 -3.010374 -5.835138 -0.517312 0.004354 0.072302 0.005855
